<svg width="300" height="300" viewBox="0 0 300 300" fill="none" xmlns="http://www.w3.org/2000/svg">
<g clip-path="url(#clip0_377_29)">
<path d="M223.543 170.625H223.332C220.559 170.625 217.899 171.727 215.938 173.688C213.977 175.649 212.875 178.309 212.875 181.082V207.594C212.875 208.994 212.319 210.338 211.328 211.328C210.338 212.319 208.994 212.875 207.594 212.875H91.4062C90.0056 212.875 88.6623 212.319 87.6718 211.328C86.6814 210.338 86.125 208.994 86.125 207.594V91.4062C86.125 90.0056 86.6814 88.6623 87.6718 87.6718C88.6623 86.6814 90.0056 86.125 91.4062 86.125H139.043C141.816 86.125 144.476 85.0233 146.437 83.0623C148.398 81.1012 149.5 78.4415 149.5 75.6681V75.4569C149.5 72.6835 148.398 70.0238 146.437 68.0627C144.476 66.1017 141.816 65 139.043 65H75.4569C72.6835 65 70.0238 66.1017 68.0627 68.0627C66.1017 70.0238 65 72.6835 65 75.4569V223.543C65 226.316 66.1017 228.976 68.0627 230.937C70.0238 232.898 72.6835 234 75.4569 234H223.543C226.316 234 228.976 232.898 230.937 230.937C232.898 228.976 234 226.316 234 223.543L233.894 223.438H234V181.082C234 178.309 232.898 175.649 230.937 173.688C228.976 171.727 226.316 170.625 223.543 170.625Z" fill="#140A0A" fill-opacity="0.8"/>
<path d="M196.735 95.1664C166.743 97.3053 143.659 107.15 128.01 124.535C115.84 138.233 108.644 155.633 107.583 173.926C107.407 175.494 107.565 177.082 108.045 178.585C108.525 180.088 109.316 181.474 110.368 182.65C111.419 183.827 112.707 184.769 114.148 185.414C115.588 186.059 117.148 186.393 118.726 186.395L119.254 186.342C121.658 186.079 123.892 184.978 125.565 183.232C127.238 181.486 128.242 179.206 128.401 176.793C129.208 162.674 134.645 149.213 143.87 138.494C155.526 125.65 173.408 118.267 197.031 116.365V117.812H196.735L196.508 119.228L184.335 131.517C182.369 133.511 181.266 136.198 181.266 138.998C181.266 141.798 182.369 144.486 184.335 146.479C185.303 147.461 186.457 148.241 187.729 148.773C189.001 149.305 190.366 149.579 191.745 149.579C193.124 149.579 194.489 149.305 195.761 148.773C197.033 148.241 198.186 147.461 199.154 146.479L230.926 114.401C232.894 112.407 233.998 109.719 233.998 106.917C233.998 104.116 232.894 101.427 230.926 99.4336L199.239 68.1C198.271 67.1188 197.118 66.3396 195.846 65.8078C194.575 65.276 193.21 65.0022 191.832 65.0022C190.453 65.0022 189.089 65.276 187.817 65.8078C186.546 66.3396 185.393 67.1188 184.425 68.1C182.456 70.0929 181.351 72.7818 181.351 75.5835C181.351 78.3853 182.456 81.0741 184.425 83.0671L196.735 95.1664Z" fill="#140A0A" fill-opacity="0.8"/>
</g>
<defs>
<clipPath id="clip0_377_29">
<rect width="169" height="169" fill="white" transform="translate(65 65)"/>
</clipPath>
</defs>
</svg>
