<svg width="300" height="300" viewBox="0 0 300 300" fill="none" xmlns="http://www.w3.org/2000/svg">
<path d="M139.417 202.917H160.583V139.417H139.417V202.917ZM150 118.25C152.998 118.25 155.512 117.236 157.54 115.207C159.569 113.179 160.583 110.665 160.583 107.667C160.583 104.668 159.569 102.155 157.54 100.126C155.512 98.0977 152.998 97.0834 150 97.0834C147.001 97.0834 144.488 98.0977 142.459 100.126C140.431 102.155 139.417 104.668 139.417 107.667C139.417 110.665 140.431 113.179 142.459 115.207C144.488 117.236 147.001 118.25 150 118.25ZM150 255.833C135.36 255.833 121.601 253.055 108.725 247.499C95.8485 241.943 84.6478 234.402 75.1228 224.877C65.5978 215.352 58.0571 204.151 52.5009 191.275C46.9446 178.399 44.1665 164.64 44.1665 150C44.1665 135.36 46.9446 121.601 52.5009 108.725C58.0571 95.8487 65.5978 84.648 75.1228 75.123C84.6478 65.598 95.8485 58.0574 108.725 52.5011C121.601 46.9449 135.36 44.1667 150 44.1667C164.64 44.1667 178.398 46.9449 191.275 52.5011C204.151 58.0574 215.352 65.598 224.877 75.123C234.402 84.648 241.943 95.8487 247.499 108.725C253.055 121.601 255.833 135.36 255.833 150C255.833 164.64 253.055 178.399 247.499 191.275C241.943 204.151 234.402 215.352 224.877 224.877C215.352 234.402 204.151 241.943 191.275 247.499C178.398 253.055 164.64 255.833 150 255.833ZM150 234.667C173.636 234.667 193.656 226.465 210.06 210.061C226.464 193.656 234.667 173.636 234.667 150C234.667 126.364 226.464 106.344 210.06 89.9397C193.656 73.5355 173.636 65.3334 150 65.3334C126.364 65.3334 106.344 73.5355 89.9394 89.9397C73.5353 106.344 65.3332 126.364 65.3332 150C65.3332 173.636 73.5353 193.656 89.9394 210.061C106.344 226.465 126.364 234.667 150 234.667Z" fill="black"/>
</svg>
