<svg width="300" height="300" viewBox="0 0 300 300" fill="none" xmlns="http://www.w3.org/2000/svg">
<path d="M75.7119 90.7145C75.7119 74.3036 89.0155 61 105.426 61C121.837 61 135.141 74.3036 135.141 90.7145C135.141 100.294 130.608 108.814 123.57 114.248C123.358 114.405 123.148 114.563 122.939 114.722C118.028 118.311 111.974 120.429 105.426 120.429C89.0155 120.429 75.7119 107.125 75.7119 90.7145ZM105.426 75.8573C97.2209 75.8573 90.5691 82.5091 90.5691 90.7145C90.5691 98.9199 97.2209 105.572 105.426 105.572C113.632 105.572 120.283 98.9199 120.283 90.7145C120.283 82.5091 113.632 75.8573 105.426 75.8573Z" fill="#212121"/>
<path d="M176.433 114.248C169.395 108.814 164.862 100.294 164.862 90.7145C164.862 74.3036 178.165 61 194.576 61C210.987 61 224.29 74.3036 224.29 90.7145C224.29 107.125 210.987 120.429 194.576 120.429C188.029 120.429 181.974 118.311 177.064 114.722C176.855 114.563 176.644 114.405 176.433 114.248ZM194.576 75.8573C186.371 75.8573 179.719 82.5091 179.719 90.7145C179.719 98.9199 186.371 105.572 194.576 105.572C202.782 105.572 209.433 98.9199 209.433 90.7145C209.433 82.5091 202.782 75.8573 194.576 75.8573Z" fill="#212121"/>
<path d="M68.2854 135.288H107.965C106.322 139.935 105.429 144.935 105.429 150.145H68.2854C64.1832 150.145 60.8572 153.471 60.8572 157.573C60.8572 169.711 65.6787 178.711 73.3089 184.836C76.8173 187.652 81.0189 189.932 85.7684 191.59C82.3186 195.266 79.6085 199.645 77.8756 204.487C72.8247 202.432 68.1517 199.747 64.0091 196.422C52.819 187.441 46 174.155 46 157.573C46 145.266 55.9775 135.288 68.2854 135.288Z" fill="#212121"/>
<path d="M124.263 135.289C121.735 139.659 120.288 144.734 120.288 150.146C120.288 162.679 128.047 173.399 139.023 177.766C142.42 179.118 146.124 179.861 150.002 179.861C153.881 179.861 157.585 179.118 160.982 177.766C171.958 173.399 179.717 162.679 179.717 150.146C179.717 144.734 178.27 139.659 175.742 135.289C170.604 126.407 161.001 120.432 150.002 120.432C139.004 120.432 129.401 126.407 124.263 135.289ZM146.669 135.664C147.741 135.419 148.856 135.289 150.002 135.289C151.148 135.289 152.264 135.419 153.336 135.664C159.936 137.177 164.86 143.087 164.86 150.146C164.86 151.292 164.73 152.408 164.484 153.48C162.971 160.08 157.062 165.003 150.002 165.003C142.943 165.003 137.034 160.08 135.521 153.48C135.275 152.408 135.145 151.292 135.145 150.146C135.145 143.087 140.069 137.177 146.669 135.664Z" fill="#212121"/>
<path d="M226.691 184.836C223.183 187.652 218.982 189.932 214.232 191.59C217.682 195.266 220.392 199.645 222.124 204.487C227.175 202.432 231.848 199.747 235.992 196.422C247.18 187.441 254 174.155 254 157.573C254 145.265 244.022 135.288 231.714 135.288H192.035C193.677 139.935 194.571 144.935 194.571 150.145H231.714C235.816 150.145 239.143 153.471 239.143 157.573C239.143 169.711 234.322 178.711 226.691 184.836Z" fill="#212121"/>
<path d="M187.146 194.714C196.445 194.714 204.413 200.409 207.754 208.501C208.834 211.121 209.431 213.991 209.431 217C209.431 233.582 202.612 246.867 191.423 255.848C180.409 264.689 165.649 269 150.003 269C134.357 269 119.596 264.689 108.583 255.848C97.3932 246.867 90.5742 233.582 90.5742 217C90.5742 213.991 91.1707 211.121 92.2519 208.501C95.5927 200.409 103.561 194.714 112.86 194.714H187.146ZM187.146 209.571H112.86C108.757 209.571 105.431 212.898 105.431 217C105.431 229.137 110.253 238.137 117.883 244.261C125.69 250.528 136.93 254.143 150.003 254.143C163.076 254.143 174.315 250.528 182.123 244.261C189.753 238.137 194.574 229.137 194.574 217C194.574 212.898 191.248 209.571 187.146 209.571Z" fill="#212121"/>
</svg>
