<svg width="246" height="246" viewBox="0 0 246 246" fill="none" xmlns="http://www.w3.org/2000/svg">
<path d="M204.316 31.1262C203.498 37.2639 202.218 43.3311 200.487 49.276C200.313 49.8716 200.135 50.4658 199.953 51.0586C193.326 72.5921 180.914 91.8926 164.07 106.855C164.747 108.622 165.311 110.43 165.758 112.269C165.886 112.855 166.004 113.443 166.109 114.034C166.378 115.304 166.591 116.586 166.748 117.875C166.821 118.573 166.877 119.273 166.916 119.975C166.998 121.177 167.031 122.382 167.014 123.587C167.006 124.313 166.979 125.037 166.935 125.761C166.926 126.214 166.908 126.666 166.884 127.118C166.796 127.728 166.696 128.335 166.583 128.94C166.45 129.957 166.282 130.969 166.078 131.974C165.864 132.96 165.616 133.939 165.335 134.909C165.064 135.897 164.758 136.876 164.418 137.844C164.071 138.791 163.691 139.727 163.28 140.648C162.873 141.59 162.435 142.518 161.964 143.429C161.491 144.319 160.988 145.191 160.455 146.046C159.922 146.925 159.358 147.785 158.765 148.625C158.175 149.439 157.557 150.234 156.913 151.007C156.264 151.803 155.587 152.577 154.883 153.326C154.186 154.053 153.465 154.756 152.721 155.433C151.966 156.133 151.187 156.807 150.385 157.453C149.598 158.075 148.791 158.67 147.964 159.237C147.119 159.827 146.253 160.387 145.369 160.917C144.501 161.427 143.616 161.907 142.715 162.357C142.22 162.638 141.719 162.91 141.213 163.172C140.707 163.38 140.196 163.579 139.683 163.769C139.058 164.029 138.427 164.275 137.79 164.507C136.562 164.943 135.316 165.325 134.054 165.651C133.485 165.814 132.913 165.966 132.338 166.106C130.503 166.521 128.644 166.818 126.771 166.996C129.939 178.557 136.651 191.795 143.01 201.956C153.92 196.892 176.816 190.536 187.688 165.902C190.766 158.928 199.162 164.234 196.911 170.537C188.208 194.906 159.604 207.398 149.714 211.739C156.603 220.199 164.899 228.134 173.767 234.489C193.388 225.587 210.326 211.685 222.884 194.178C242.049 167.249 249.568 133.739 243.746 101.204C243.626 100.656 243.502 100.109 243.375 99.5622C242.488 94.9007 241.331 90.2945 239.911 85.7666C239.559 84.7541 239.194 83.7464 238.816 82.7434C237.457 78.7453 235.894 74.8198 234.132 70.9826C233.552 69.8073 232.953 68.6414 232.336 67.4853C232.172 67.1822 232.007 66.8798 231.841 66.5781C230.204 63.3364 228.423 60.1689 226.505 57.0848C225.566 55.6512 224.597 54.2375 223.599 52.8445C221.583 49.9078 219.44 47.0601 217.176 44.3095C215.914 42.8224 214.616 41.3655 213.284 39.9402C211.053 37.4856 208.724 35.1223 206.302 32.856C205.646 32.2723 204.984 31.6957 204.316 31.1262Z" fill="#FF7F2A"/>
<path d="M0.641028 110.73C-1.59385 133.973 2.05524 154.332 10.9586 174.007C20.5983 194.936 35.9239 212.736 55.1885 225.378C58.4643 227.619 61.8467 229.699 65.3237 231.613C66.3936 232.113 67.4706 232.597 68.5544 233.065C72.3969 235.015 76.3392 236.761 80.365 238.297C81.359 238.609 82.3569 238.909 83.3584 239.195C87.5548 240.665 91.8277 241.905 96.1584 242.912C97.1268 243.081 98.0972 243.238 99.0693 243.383C103.472 244.289 107.92 244.953 112.395 245.372C113.813 245.432 115.231 245.468 116.65 245.48C120.725 245.739 124.809 245.795 128.889 245.647C129.802 245.565 130.713 245.472 131.623 245.369C136.186 245.072 140.729 244.52 145.231 243.717C146.109 243.52 146.985 243.313 147.858 243.096C152.356 242.188 156.799 241.028 161.167 239.623C161.323 239.564 161.479 239.504 161.635 239.445C138.213 221.437 122.053 195.602 116.108 166.661C115.507 166.543 114.909 166.413 114.313 166.27C113.898 166.185 113.484 166.095 113.072 165.999C112.192 165.822 111.318 165.619 110.45 165.388C109.883 165.202 109.321 165.005 108.762 164.797C108.202 164.612 107.647 164.416 107.095 164.209C106.392 163.953 105.695 163.679 105.006 163.388C104.439 163.126 103.879 162.852 103.324 162.566C102.728 162.281 102.139 161.983 101.557 161.672C100.986 161.358 100.422 161.032 99.8656 160.693C99.3128 160.353 98.7676 160 98.2303 159.635C97.8267 159.397 97.427 159.152 97.0312 158.901C96.8485 158.753 96.6671 158.604 96.4869 158.453C96.0207 158.092 95.5619 157.721 95.1106 157.341C94.5901 156.927 94.0791 156.5 93.5779 156.062C92.5372 155.141 91.5405 154.171 90.5911 153.156C90.1981 152.746 89.813 152.327 89.4361 151.902C88.4089 150.718 87.4454 149.481 86.5495 148.195C86.3205 147.874 86.0959 147.549 85.8756 147.222C84.9233 145.777 84.0565 144.278 83.2797 142.732C83.1719 142.522 83.066 142.311 82.9616 142.1C82.307 140.752 81.7213 139.371 81.2067 137.964L81.1735 137.883C81.1586 137.834 81.1438 137.786 81.1291 137.737C81.0294 137.454 80.9326 137.169 80.8387 136.884C80.809 136.797 80.7796 136.71 80.7504 136.624C77.2269 125.985 77.8708 114.405 82.5521 104.222C70.2455 100.999 59.4825 99.3046 43.4311 100.097C43.4311 100.097 38.7238 134.826 50.3645 151.157C54.4729 156.92 47.0123 161.666 42.0013 155.264C29.9727 139.899 32.9201 101.245 32.9201 101.245C19.7759 102.88 9.85644 106.781 9.85644 106.781C9.85644 106.781 0.708458 110.029 0.641028 110.73Z" fill="#999999"/>
<path d="M118.346 0.0762854C102.242 0.642775 86.4059 4.36867 71.7384 11.0422C70.0402 11.91 68.3625 12.8172 66.7065 13.763C63.4685 15.3338 60.301 17.0459 57.2132 18.8945C45.5169 26.3834 35.1737 35.7994 26.6223 46.7429C24.9104 48.7566 23.2638 50.8251 21.6851 52.945C12.2575 66.5726 5.68108 81.9648 2.35083 98.1976L2.38603 98.1833C3.64699 97.6627 4.91651 97.1631 6.19408 96.6847C32.5421 86.8162 61.4767 86.2766 88.1743 95.1559C93.8352 88.1546 101.497 83.0463 110.136 80.5127C110.171 80.5037 110.206 80.4934 110.24 80.4842C111.945 79.9782 113.679 79.5754 115.432 79.278C115.493 79.269 115.554 79.2605 115.615 79.252C115.721 79.2367 115.827 79.222 115.934 79.2076C116.121 79.1804 116.308 79.1544 116.495 79.1297C118.032 78.9027 119.579 78.7567 121.131 78.6924C121.292 78.6915 121.454 78.6915 121.616 78.6918C121.686 78.6916 121.757 78.6916 121.828 78.6918C122.185 78.6878 122.542 78.6878 122.899 78.6918C124.226 78.6838 125.553 78.7366 126.875 78.8484C126.927 78.8504 126.978 78.8524 127.03 78.8534C127.332 78.8916 127.634 78.9329 127.936 78.9774C128.292 79.022 128.646 79.0709 129.001 79.124C129.564 79.1905 130.126 79.2679 130.686 79.356C130.75 79.3709 130.813 79.386 130.876 79.4013C131.745 79.5764 132.608 79.7776 133.465 80.0045C133.5 80.0125 133.536 80.0208 133.571 80.0289C133.937 80.1093 134.301 80.1946 134.664 80.2844C134.789 80.3128 134.913 80.342 135.038 80.3715C135.358 80.4834 135.677 80.599 135.994 80.7183C137.04 81.0475 138.074 81.4155 139.092 81.8215C139.54 81.9815 139.985 82.1488 140.427 82.3232C140.904 82.5485 141.376 82.7822 141.844 83.0244C142.703 83.4365 143.548 83.8762 144.379 84.3429C144.863 84.5897 145.343 84.8456 145.819 85.1102C146.327 85.4455 146.828 85.7912 147.321 86.1472C147.675 86.3573 148.026 86.5723 148.374 86.7922C148.693 87.0455 149.009 87.3033 149.321 87.5654C149.811 87.9015 150.295 88.2476 150.772 88.6032C151.235 89.012 151.689 89.4303 152.134 89.8581C152.637 90.3105 153.13 90.7744 153.612 91.2494C153.637 91.2726 153.663 91.2958 153.688 91.3189C154.206 91.7833 154.713 92.2598 155.208 92.748C155.616 93.2264 156.014 93.7135 156.402 94.2089C156.714 94.5822 157.021 94.9606 157.321 95.344C157.912 96.0297 158.482 96.7334 159.03 97.454C168.14 88.2396 175.738 77.6437 181.542 66.0582C168.027 54.6163 151.217 45.3931 121.575 45.7586C115.322 45.8357 115.374 35.4338 123.351 34.6236C150.404 31.8754 177.116 44.0982 186.496 54.7957C190.408 44.5389 192.93 33.8046 193.994 22.8788C185.748 17.0187 176.811 12.1983 167.384 8.52697C166.82 8.26804 166.253 8.01339 165.685 7.76305L165.61 7.73943C150.51 2.11293 134.451 -0.490575 118.346 0.0762854Z" fill="#338000"/>
<path d="M64.0803 20.4504L100.413 20.01C99.6901 24.1143 102.153 29.1722 88.6323 29.3684L90.9444 34.5431L100.303 34.433C100.582 39.8158 98.1405 42.866 91.1646 42.0298C88.3098 52.7002 80.9723 55.8115 72.8882 57.6638L87.3367 75.0795C89.1385 77.4869 90.3298 79.0025 88.3798 79.897L79.5842 79.884L60.3369 57.7742L60.2268 50.2875C68.1698 49.2273 78.5238 51.5828 80.7052 42.3604L61.4379 42.1402C58.6781 39.999 60.5435 35.6918 63.6399 34.8737L80.1547 34.4333C79.8793 32.1697 78.1345 30.2812 72.9983 29.2586L61.1076 28.9283C59.3111 27.6505 60.3016 22.3513 64.0803 20.4504Z" fill="white"/>
<path d="M204.336 96.3777C202.664 96.3777 201.009 96.7071 199.464 97.3469C197.919 97.9868 196.516 98.9246 195.334 100.107C194.152 101.289 193.214 102.693 192.574 104.237C191.934 105.782 191.605 107.438 191.605 109.109C191.605 112.486 192.947 115.724 195.334 118.111C197.722 120.499 200.96 121.84 204.336 121.84C206.008 121.84 207.664 121.511 209.208 120.871C210.753 120.232 212.156 119.294 213.339 118.112C214.521 116.93 215.459 115.526 216.099 113.981C216.738 112.437 217.068 110.781 217.068 109.109C217.068 107.437 216.739 105.782 216.099 104.237C215.459 102.692 214.521 101.289 213.339 100.107C212.157 98.9243 210.753 97.9865 209.208 97.3467C207.664 96.7069 206.008 96.3776 204.336 96.3777ZM213.128 126.68L196.179 126.789C180.969 130.042 182.487 140.247 182.559 152.26C182.816 155.345 185.749 155.081 185.749 155.081L224.58 155.045C226.397 154.891 226.812 153.98 226.962 152.69C226.982 140.261 228.576 129.834 213.128 126.68Z" fill="white"/>
<path d="M54.9089 171.111V216.884H95.554V185.743L80.6479 194.349V185.993L65.4425 194.772L65.2236 171.111H54.9089Z" fill="white"/>
<path d="M61.8567 167.242C64.3193 167.242 66.3157 165.541 66.3157 163.443C66.3157 161.346 64.3193 159.645 61.8567 159.645C59.3941 159.645 57.3977 161.346 57.3977 163.443C57.3977 165.541 59.3941 167.242 61.8567 167.242Z" fill="white"/>
<path d="M84.4758 152.319C83.1401 152.099 81.7711 152.313 80.58 152.928C79.3889 153.543 78.4419 154.524 77.8852 155.721C77.3309 155.466 76.7423 155.285 76.1372 155.185C75.3026 155.048 74.4507 155.066 73.6302 155.24C72.8097 155.413 72.0366 155.737 71.3551 156.195C70.6735 156.653 70.0969 157.234 69.6581 157.907C69.2193 158.579 68.927 159.329 68.7977 160.113C68.6684 160.898 68.7048 161.702 68.9048 162.48C69.1047 163.257 69.4643 163.993 69.9631 164.645C70.4618 165.297 71.0899 165.853 71.8115 166.28C72.5331 166.707 73.334 166.998 74.1686 167.135C75.5669 167.366 76.9976 167.156 78.239 166.539C79.4804 165.922 80.4633 164.932 81.0353 163.722C81.5115 163.929 82.0121 164.076 82.5252 164.16C84.1386 164.426 85.7886 164.057 87.1123 163.135C88.436 162.212 89.325 160.812 89.5837 159.242C89.8423 157.672 89.4495 156.06 88.4916 154.762C87.5337 153.464 86.0892 152.585 84.4758 152.319Z" fill="white"/>
</svg>
