<svg width="404" height="404" viewBox="0 0 404 404" fill="none" xmlns="http://www.w3.org/2000/svg">
<path d="M292.895 202C292.895 206.545 289.176 210.263 284.632 210.263H210.263V284.632C210.263 289.176 206.545 292.895 202 292.895C197.455 292.895 193.737 289.176 193.737 284.632V210.263H119.368C114.824 210.263 111.105 206.545 111.105 202C111.105 197.455 114.824 193.737 119.368 193.737H193.737V119.368C193.737 114.824 197.455 111.105 202 111.105C206.545 111.105 210.263 114.824 210.263 119.368V193.737H284.632C289.176 193.737 292.895 197.455 292.895 202ZM359 202C359 288.763 288.763 359 202 359C115.237 359 45 288.763 45 202C45 115.237 115.237 45 202 45C288.763 45 359 115.237 359 202ZM342.474 202C342.474 124.326 279.674 61.5263 202 61.5263C124.326 61.5263 61.5263 124.326 61.5263 202C61.5263 279.674 124.326 342.474 202 342.474C279.674 342.474 342.474 279.674 342.474 202Z" fill="black"/>
</svg>
