<svg width="300" height="300" viewBox="0 0 300 300" fill="none" xmlns="http://www.w3.org/2000/svg">
<path d="M60 60V60.0218V71.208V239H70.5294H165.294V227.814H102.118V160.697H196.882V149.511H102.118H91.5882V227.814H70.5294V71.208H102.118V115.953V127.139H186.353V115.953V71.208H189.438L217.941 101.489V104.766V160.697H228.471V104.766V96.9448H228.388L228.471 96.8356L193.798 60L193.715 60.1092V60H186.353H60ZM112.647 71.208H153.716V115.953H112.647V71.208ZM207.412 171.883L201.366 189.93L185.078 181.715L192.81 199.018L175.824 205.442L192.81 211.865L185.078 229.168L201.366 220.954L207.412 239L213.458 220.954L229.746 229.168L222.013 211.865L239 205.442L222.013 199.018L229.746 181.715L213.458 189.93L207.412 171.883Z" fill="#232629"/>
</svg>
