<svg width="295" height="295" viewBox="0 0 295 295" fill="none" xmlns="http://www.w3.org/2000/svg">
<path d="M61.4583 258.125C54.6979 258.125 48.9106 255.718 44.0964 250.904C39.2821 246.089 36.875 240.302 36.875 233.542V61.4583C36.875 54.6979 39.2821 48.9106 44.0964 44.0964C48.9106 39.2821 54.6979 36.875 61.4583 36.875H208.958L258.125 86.0417V151.187C254.233 149.549 250.187 148.473 245.987 147.961C241.787 147.449 237.639 147.5 233.542 148.115V96.1823L198.818 61.4583H61.4583V233.542H135.208V258.125H61.4583ZM159.792 282.708V244.911L227.703 177.307C229.547 175.464 231.595 174.132 233.849 173.312C236.102 172.493 238.356 172.083 240.609 172.083C243.068 172.083 245.424 172.544 247.677 173.466C249.931 174.388 251.979 175.771 253.823 177.615L265.193 188.984C266.832 190.828 268.112 192.877 269.034 195.13C269.956 197.384 270.417 199.637 270.417 201.891C270.417 204.144 270.007 206.449 269.188 208.805C268.368 211.161 267.036 213.26 265.193 215.104L197.589 282.708H159.792ZM178.229 264.271H189.906L227.089 226.781L221.557 220.943L215.719 215.411L178.229 252.594V264.271ZM221.557 220.943L215.719 215.411L227.089 226.781L221.557 220.943ZM73.75 122.917H184.375V73.75H73.75V122.917ZM147.5 221.25H148.729L184.375 185.911V184.375C184.375 174.132 180.79 165.425 173.62 158.255C166.45 151.085 157.743 147.5 147.5 147.5C137.257 147.5 128.55 151.085 121.38 158.255C114.21 165.425 110.625 174.132 110.625 184.375C110.625 194.618 114.21 203.325 121.38 210.495C128.55 217.665 137.257 221.25 147.5 221.25Z" fill="black"/>
</svg>
