<svg width="300" height="300" viewBox="0 0 300 300" fill="none" xmlns="http://www.w3.org/2000/svg">
<path d="M149.5 243.625C125.446 243.625 104.486 235.651 86.6193 219.702C68.753 203.753 58.5125 183.838 55.8979 159.958H77.3375C79.7778 178.086 87.8394 193.076 101.522 204.929C115.205 216.782 131.198 222.708 149.5 222.708C169.894 222.708 187.194 215.605 201.399 201.399C215.605 187.194 222.708 169.894 222.708 149.5C222.708 129.106 215.605 111.806 201.399 97.6005C187.194 83.3946 169.894 76.2917 149.5 76.2917C137.473 76.2917 126.23 79.0806 115.772 84.6583C105.314 90.2361 96.5111 97.9056 89.3646 107.667H118.125V128.583H55.375V65.8333H76.2917V90.4104C85.1813 79.2549 96.0318 70.6267 108.843 64.526C121.655 58.4253 135.207 55.375 149.5 55.375C162.573 55.375 174.818 57.8589 186.235 62.8266C197.652 67.7943 207.587 74.505 216.041 82.9589C224.495 91.4127 231.206 101.348 236.173 112.765C241.141 124.182 243.625 136.427 243.625 149.5C243.625 162.573 241.141 174.818 236.173 186.235C231.206 197.652 224.495 207.587 216.041 216.041C207.587 224.495 197.652 231.206 186.235 236.173C174.818 241.141 162.573 243.625 149.5 243.625ZM178.783 193.425L139.042 153.683V97.2083H159.958V145.317L193.425 178.783L178.783 193.425Z" fill="black"/>
</svg>
