<svg width="10" height="7" viewBox="0 0 10 7" fill="none" xmlns="http://www.w3.org/2000/svg">
<path d="M5.79893 3.84004L4.39893 4.64004V3.04004L5.79893 3.84004Z" fill="black" stroke="black" stroke-width="0.482962" stroke-linecap="round" stroke-linejoin="round"/>
<path d="M1 4.12304V3.557C1 2.39886 1 1.8198 1.3622 1.44721C1.7244 1.07462 2.29462 1.05849 3.43508 1.02624C3.97549 1.01095 4.52752 1 5 1C5.47248 1 6.02452 1.01095 6.56492 1.02624C7.70536 1.05849 8.2756 1.07462 8.6378 1.44721C9 1.8198 9 2.39886 9 3.557V4.12304C9 5.28116 9 5.86024 8.6378 6.2328C8.2756 6.6054 7.7054 6.62152 6.56496 6.6538C6.02452 6.66908 5.47248 6.68004 5 6.68004C4.52752 6.68004 3.97547 6.66908 3.43504 6.6538C2.2946 6.62152 1.72439 6.6054 1.36219 6.2328C1 5.86024 1 5.28116 1 4.12304Z" stroke="black" stroke-width="0.482962"/>
</svg>
