<svg width="300" height="300" viewBox="0 0 300 300" fill="none" xmlns="http://www.w3.org/2000/svg">
<path d="M65.625 89.0625C62.8125 89.0625 60.9375 87.1875 60.9375 84.375V65.625C60.9375 62.8125 62.8125 60.9375 65.625 60.9375C68.4375 60.9375 70.3125 62.8125 70.3125 65.625V84.375C70.3125 87.1875 68.4375 89.0625 65.625 89.0625ZM65.625 164.062C62.8125 164.062 60.9375 162.188 60.9375 159.375V140.625C60.9375 137.812 62.8125 135.938 65.625 135.938C68.4375 135.938 70.3125 137.812 70.3125 140.625V159.375C70.3125 162.188 68.4375 164.062 65.625 164.062ZM65.625 239.062C62.8125 239.062 60.9375 237.188 60.9375 234.375V215.625C60.9375 212.812 62.8125 210.938 65.625 210.938C68.4375 210.938 70.3125 212.812 70.3125 215.625V234.375C70.3125 237.188 68.4375 239.062 65.625 239.062ZM65.625 126.562C62.8125 126.562 60.9375 124.688 60.9375 121.875V103.125C60.9375 100.312 62.8125 98.4375 65.625 98.4375C68.4375 98.4375 70.3125 100.312 70.3125 103.125V121.875C70.3125 124.688 68.4375 126.562 65.625 126.562ZM65.625 201.562C62.8125 201.562 60.9375 199.688 60.9375 196.875V178.125C60.9375 175.312 62.8125 173.438 65.625 173.438C68.4375 173.438 70.3125 175.312 70.3125 178.125V196.875C70.3125 199.688 68.4375 201.562 65.625 201.562Z" fill="#4F5266"/>
<path d="M225 276.562H75C67.5 276.562 60.9375 270 60.9375 262.5V253.125C60.9375 250.312 62.8125 248.438 65.625 248.438C68.4375 248.438 70.3125 250.312 70.3125 253.125V262.5C70.3125 265.313 72.1875 267.188 75 267.188H225C238.125 267.188 248.438 256.875 248.438 243.75V56.25C248.438 43.125 238.125 32.8125 225 32.8125H75C72.1875 32.8125 70.3125 34.6875 70.3125 37.5V46.875C70.3125 49.6875 68.4375 51.5625 65.625 51.5625C62.8125 51.5625 60.9375 49.6875 60.9375 46.875V37.5C60.9375 30 67.5 23.4375 75 23.4375H225C242.812 23.4375 257.812 38.4375 257.812 56.25V243.75C257.812 261.562 242.812 276.562 225 276.562Z" fill="#4F5266"/>
<path d="M75 70.3125H56.25C48.75 70.3125 42.1875 63.75 42.1875 56.25C42.1875 48.75 48.75 42.1875 56.25 42.1875H75C82.5 42.1875 89.0625 48.75 89.0625 56.25C89.0625 63.75 82.5 70.3125 75 70.3125ZM56.25 51.5625C53.4375 51.5625 51.5625 53.4375 51.5625 56.25C51.5625 59.0625 53.4375 60.9375 56.25 60.9375H75C77.8125 60.9375 79.6875 59.0625 79.6875 56.25C79.6875 53.4375 77.8125 51.5625 75 51.5625H56.25ZM75 107.812H56.25C48.75 107.812 42.1875 101.25 42.1875 93.75C42.1875 86.25 48.75 79.6875 56.25 79.6875H75C82.5 79.6875 89.0625 86.25 89.0625 93.75C89.0625 101.25 82.5 107.812 75 107.812ZM56.25 89.0625C53.4375 89.0625 51.5625 90.9375 51.5625 93.75C51.5625 96.5625 53.4375 98.4375 56.25 98.4375H75C77.8125 98.4375 79.6875 96.5625 79.6875 93.75C79.6875 90.9375 77.8125 89.0625 75 89.0625H56.25ZM75 145.312H56.25C48.75 145.312 42.1875 138.75 42.1875 131.25C42.1875 123.75 48.75 117.188 56.25 117.188H75C82.5 117.188 89.0625 123.75 89.0625 131.25C89.0625 138.75 82.5 145.312 75 145.312ZM56.25 126.562C53.4375 126.562 51.5625 128.437 51.5625 131.25C51.5625 134.063 53.4375 135.938 56.25 135.938H75C77.8125 135.938 79.6875 134.063 79.6875 131.25C79.6875 128.437 77.8125 126.562 75 126.562H56.25ZM75 182.812H56.25C48.75 182.812 42.1875 176.25 42.1875 168.75C42.1875 161.25 48.75 154.688 56.25 154.688H75C82.5 154.688 89.0625 161.25 89.0625 168.75C89.0625 176.25 82.5 182.812 75 182.812ZM56.25 164.062C53.4375 164.062 51.5625 165.937 51.5625 168.75C51.5625 171.563 53.4375 173.438 56.25 173.438H75C77.8125 173.438 79.6875 171.563 79.6875 168.75C79.6875 165.937 77.8125 164.062 75 164.062H56.25ZM75 220.312H56.25C48.75 220.312 42.1875 213.75 42.1875 206.25C42.1875 198.75 48.75 192.188 56.25 192.188H75C82.5 192.188 89.0625 198.75 89.0625 206.25C89.0625 213.75 82.5 220.312 75 220.312ZM56.25 201.562C53.4375 201.562 51.5625 203.437 51.5625 206.25C51.5625 209.063 53.4375 210.938 56.25 210.938H75C77.8125 210.938 79.6875 209.063 79.6875 206.25C79.6875 203.437 77.8125 201.562 75 201.562H56.25ZM75 257.812H56.25C48.75 257.812 42.1875 251.25 42.1875 243.75C42.1875 236.25 48.75 229.688 56.25 229.688H75C82.5 229.688 89.0625 236.25 89.0625 243.75C89.0625 251.25 82.5 257.812 75 257.812ZM56.25 239.062C53.4375 239.062 51.5625 240.937 51.5625 243.75C51.5625 246.563 53.4375 248.438 56.25 248.438H75C77.8125 248.438 79.6875 246.563 79.6875 243.75C79.6875 240.937 77.8125 239.062 75 239.062H56.25ZM164.062 201.562C148.125 201.562 135.938 189.375 135.938 173.438C135.938 157.5 148.125 145.312 164.062 145.312C169.688 145.312 176.25 147.188 180.937 150.938C181.875 151.875 182.812 152.812 182.812 154.688V192.188C182.812 194.063 181.875 195 180.937 195.937C176.25 199.687 169.688 201.562 164.062 201.562ZM164.062 154.688C153.75 154.688 145.312 163.125 145.312 173.438C145.312 183.75 153.75 192.188 164.062 192.188C167.813 192.188 170.625 191.25 173.438 189.375V157.5C170.625 155.625 167.813 154.688 164.062 154.688Z" fill="#4F5266"/>
<path d="M159.375 220.312C133.125 220.312 112.5 199.687 112.5 173.438C112.5 147.188 133.125 126.562 159.375 126.562C185.625 126.562 206.25 147.188 206.25 173.438C206.25 182.812 203.438 192.187 198.75 199.687C197.813 200.625 196.875 201.562 195 201.562H178.125C175.312 201.562 173.438 199.688 173.438 196.875V150C173.438 147.187 175.312 145.312 178.125 145.312C180.938 145.312 182.812 147.187 182.812 150V192.188H192.188C195.938 186.562 196.875 180 196.875 173.438C196.875 152.812 180 135.938 159.375 135.938C138.75 135.938 121.875 152.812 121.875 173.438C121.875 194.063 138.75 210.938 159.375 210.938C165 210.938 170.625 210 176.25 207.188C178.125 206.25 180.937 207.187 182.812 209.062C183.75 210.937 182.812 213.75 180.937 215.625C173.437 218.438 166.875 220.312 159.375 220.312Z" fill="#4F5266"/>
</svg>
