<svg width="300" height="300" viewBox="0 0 300 300" fill="none" xmlns="http://www.w3.org/2000/svg">
<path d="M156.844 178.875C169.011 178.875 178.875 188.739 178.875 200.906V208.25C178.875 237.205 151.564 267 105.438 267C59.3116 267 32 237.205 32 208.25V200.906C32 188.739 41.8637 178.875 54.0312 178.875H156.844ZM156.844 193.562H54.0312C49.9754 193.562 46.6875 196.851 46.6875 200.906V208.25C46.6875 229.365 67.7223 252.312 105.438 252.312C143.153 252.312 164.188 229.365 164.188 208.25V200.906C164.188 196.851 160.899 193.562 156.844 193.562ZM105.438 83.4062C127.745 83.4062 145.828 101.49 145.828 123.797C145.828 146.104 127.745 164.188 105.438 164.188C83.1304 164.188 65.0469 146.104 65.0469 123.797C65.0469 101.49 83.1304 83.4062 105.438 83.4062ZM237.625 32C253.111 32 265.799 43.9832 266.919 59.1827L267 61.375V90.75C267 106.236 255.016 118.923 239.818 120.044L237.625 120.125H215.579L197.983 143.622C190.208 153.994 174.417 149.792 171.888 138.106L171.628 136.467L171.543 134.812L171.531 119.17L170.392 118.881C159.737 115.672 151.633 106.576 149.861 95.3736L149.581 92.9423L149.5 90.75V61.375C149.5 45.8891 161.484 33.2019 176.682 32.0806L178.875 32H237.625ZM105.438 98.0938C91.242 98.0938 79.7344 109.601 79.7344 123.797C79.7344 137.992 91.242 149.5 105.438 149.5C119.633 149.5 131.141 137.992 131.141 123.797C131.141 109.601 119.633 98.0938 105.438 98.0938ZM237.625 46.6875H208.25H178.875C171.343 46.6875 165.135 52.3575 164.286 59.6621L164.188 61.375V90.75C164.188 98.2823 169.857 104.49 177.162 105.339L178.875 105.438H186.23V134.812L208.25 105.438H237.625C245.157 105.438 251.365 99.7675 252.214 92.4629L252.312 90.75V61.375C252.312 53.8427 246.643 47.6347 239.338 46.7863L237.625 46.6875Z" fill="#212121"/>
</svg>
