<svg width="246" height="224" viewBox="0 0 246 224" fill="none" xmlns="http://www.w3.org/2000/svg">
<path d="M40.04 25.5H79.6123C90.4629 25.5001 100.063 31.9964 103.676 41.6943L103.844 42.1592L104.615 44.3613V44.3623C105.224 46.1141 106.395 47.6334 107.956 48.708C109.516 49.7822 111.389 50.3577 113.308 50.3564V50.3574H204.96C219.063 50.3574 230.5 61.3073 230.5 74.7139V174.143C230.5 187.549 219.063 198.5 204.96 198.5H40.04C25.9373 198.5 14.5 187.549 14.5 174.143V49.8574C14.5 36.4506 25.9373 25.5 40.04 25.5ZM40.04 41.0713C34.9944 41.0713 30.8604 44.9945 30.8604 49.8574V174.143C30.8604 179.005 34.9944 182.929 40.04 182.929H204.96C210.006 182.929 214.14 179.005 214.14 174.143V74.7139C214.139 69.8512 210.005 65.9287 204.96 65.9287H113.308C107.941 65.9337 102.711 64.3243 98.3613 61.332C94.1478 58.4334 90.9686 54.3809 89.2393 49.7227L89.0771 49.2705L89.0762 49.2695L88.3037 47.0664H88.3047C87.6957 45.3147 86.5247 43.7953 84.9639 42.7207C83.4035 41.6465 81.5312 41.07 79.6123 41.0713H40.04Z" fill="black" stroke="black"/>
<path d="M22.6797 83.5H222.32C224.497 83.5001 226.58 84.3255 228.112 85.7881C229.644 87.2502 230.5 89.2289 230.5 91.2861V174.143C230.5 187.549 219.063 198.5 204.96 198.5H40.04C25.9373 198.5 14.5 187.549 14.5 174.143V91.2861C14.5 89.2289 15.356 87.2502 16.8877 85.7881C18.42 84.3255 20.5032 83.5001 22.6797 83.5ZM30.8604 174.143C30.8604 179.005 34.9944 182.929 40.04 182.929H204.96C210.006 182.929 214.14 179.005 214.14 174.143V99.0713H30.8604V174.143Z" fill="black" stroke="black"/>
</svg>
