<svg width="424" height="431" viewBox="0 0 424 431" fill="none" xmlns="http://www.w3.org/2000/svg">
<path d="M358.209 173.49H288.794V69.1571C288.794 66.4632 287.763 63.8797 285.929 61.9749C284.095 60.0701 281.607 59 279.013 59H143.977C141.383 59 138.895 60.0701 137.061 61.9749C135.227 63.8797 134.196 66.4632 134.196 69.1571V173.48H64.7809C62.1869 173.48 59.6991 174.55 57.8648 176.455C56.0305 178.36 55 180.943 55 183.637V315.476C55 318.17 56.0305 320.753 57.8648 322.658C59.6991 324.563 62.1869 325.633 64.7809 325.633H132.211V361.843C132.211 364.537 133.241 367.12 135.076 369.025C136.91 370.93 139.398 372 141.992 372H277.027C279.622 372 282.109 370.93 283.944 369.025C285.778 367.12 286.808 364.537 286.808 361.843V325.633H358.219C360.813 325.633 363.301 324.563 365.135 322.658C366.97 320.753 368 318.17 368 315.476V183.647C367.99 178.031 363.608 173.49 358.209 173.49ZM153.758 79.3141H269.232V173.48H153.758V79.3141ZM267.237 351.696H151.763V287.412H267.237V351.696ZM348.428 305.319H286.799V277.245C286.799 274.551 285.768 271.967 283.934 270.063C282.1 268.158 279.612 267.088 277.018 267.088H141.982C139.388 267.088 136.9 268.158 135.066 270.063C133.231 271.967 132.201 274.551 132.201 277.245V305.319H74.5521V193.805H141.982C142.647 193.947 143.263 194.221 143.967 194.221H279.013C279.717 194.221 280.343 193.947 280.999 193.805H348.419L348.428 305.319Z" fill="black"/>
</svg>
