<svg width="404" height="404" viewBox="0 0 404 404" fill="none" xmlns="http://www.w3.org/2000/svg">
<path d="M167.343 64C161.054 64 155.956 69.1488 155.956 75.5C155.956 81.8512 161.054 87 167.343 87H190.118V317H167.343C161.054 317 155.956 322.15 155.956 328.5C155.956 334.85 161.054 340 167.343 340H235.667C241.956 340 247.054 334.85 247.054 328.5C247.054 322.15 241.956 317 235.667 317H212.892V87H235.667C241.956 87 247.054 81.8512 247.054 75.5C247.054 69.1488 241.956 64 235.667 64H167.343Z" fill="#212121"/>
<path d="M102.815 98.5H164.496V122.946H102.815C89.1892 122.946 78.1431 133.89 78.1431 147.391V245.108C78.1431 258.607 89.1894 269.554 102.815 269.554H164.496V294H102.815C75.5631 294 53.4707 272.109 53.4707 245.108V147.391C53.4707 120.389 75.5631 98.5 102.815 98.5ZM300.195 269.554H238.514V294H300.195C327.448 294 349.539 272.109 349.539 245.108V147.391C349.539 120.389 327.448 98.5 300.195 98.5H238.514V122.946H300.195C313.821 122.946 324.867 133.891 324.867 147.391V245.108C324.867 258.61 313.821 269.554 300.195 269.554Z" fill="#212121"/>
</svg>
