<svg width="95" height="95" viewBox="0 0 95 95" fill="none" xmlns="http://www.w3.org/2000/svg">
<g clip-path="url(#clip0_1968_116)">
<circle cx="47.5" cy="47.5" r="47.5" fill="url(#paint0_radial_1968_116)"/>
<path d="M47.4356 8.37158C48.121 8.37162 48.7849 8.61309 49.3098 9.05369L79.4266 34.3903C79.9413 34.7405 80.33 35.2464 80.5364 35.8335C80.7428 36.421 80.7559 37.059 80.5732 37.6541C80.3904 38.2493 80.0217 38.7701 79.5212 39.1403C79.0211 39.5108 78.4151 39.711 77.7923 39.7121H73.3433V73.5339C73.343 75.3866 72.607 77.1632 71.2974 78.4736C69.9874 79.7836 68.2115 80.5203 66.3588 80.5217H56.4603V60.7242C56.4595 60.1073 56.2142 59.5158 55.7778 59.0794C55.3414 58.6433 54.7499 58.3984 54.1326 58.398H40.743C40.1257 58.398 39.5339 58.643 39.0971 59.079C38.6603 59.5154 38.4146 60.1069 38.4139 60.7242V80.5217H28.5186C26.6656 80.521 24.8882 79.785 23.5779 78.4747C22.2675 77.1643 21.5316 75.387 21.5308 73.5339V39.7121H17.1062C16.5092 39.7118 15.9267 39.5279 15.4376 39.1854C14.9486 38.8433 14.5762 38.3588 14.3716 37.7979C14.1671 37.237 14.14 36.6263 14.2938 36.0493C14.4476 35.4724 14.7752 34.957 15.2319 34.5723L45.5615 9.05369C46.0863 8.61312 46.7502 8.37158 47.4356 8.37158Z" fill="#333333"/>
</g>
<defs>
<radialGradient id="paint0_radial_1968_116" cx="0" cy="0" r="1" gradientUnits="userSpaceOnUse" gradientTransform="translate(47.5 47.5) rotate(90) scale(47.5)">
<stop offset="0.466346" stop-color="white"/>
<stop offset="1" stop-color="white" stop-opacity="0.5"/>
</radialGradient>
<clipPath id="clip0_1968_116">
<rect width="95" height="95" fill="white"/>
</clipPath>
</defs>
</svg>
